<?xml version="1.0" encoding="UTF-8" standalone="no"?>
<svg width="130px" height="63px" viewBox="0 0 130 63" version="1.1" xmlns="http://www.w3.org/2000/svg" xmlns:xlink="http://www.w3.org/1999/xlink" xmlns:sketch="http://www.bohemiancoding.com/sketch/ns">
    <title>Untitled</title>
    <description>Created with Sketch (http://www.bohemiancoding.com/sketch)</description>
    <defs></defs>
    <g id="Page-1" stroke="none" stroke-width="1" fill="none" fill-rule="evenodd" sketch:type="MSPage">
        <text id="staccato" sketch:type="MSTextLayer" font-family="Avenir Next Condensed" font-size="64" font-style="condensed" font-weight="260" letter-spacing="-5" fill="#000000">
            <tspan x="4" y="51">st</tspan>
            <tspan x="27.792" y="51" letter-spacing="-7">ac</tspan>
            <tspan x="58.272" y="51">c</tspan>
            <tspan x="73.56" y="51" letter-spacing="-5.89999914">at</tspan>
            <tspan x="99.5200017" y="51" letter-spacing="-6">o</tspan>
        </text>
        <path d="M25.5,8 C26.3284272,8 27,7.32842717 27,6.5 C27,5.67157283 26.3284272,5 25.5,5 C24.6715728,5 24,5.67157283 24,6.5 C24,7.32842717 24.6715728,8 25.5,8 Z" id="Oval-1" fill="#000000" sketch:type="MSShapeGroup"></path>
        <path d="M97.5,8 C98.3284272,8 99,7.32842717 99,6.5 C99,5.67157283 98.3284272,5 97.5,5 C96.6715728,5 96,5.67157283 96,6.5 C96,7.32842717 96.6715728,8 97.5,8 Z" id="Oval-1" fill="#000000" sketch:type="MSShapeGroup"></path>
    </g>
</svg>